PathFileType	4	(X/Y/Z)	C:\Users\Basilio\Documents\Thesis Gigler\squatting_fais\c3dfiles\047\SJ_pre4\markers_experimental.trc
DataRate	CameraRate	NumFrames	NumMarkers	Units	OrigDataRate	OrigDataStartFrame	OrigNumFrames
200.000000	200.000000	4	61	mm	200.000000	784	1569
Frame#	Time	FHD			LBHD			RBHD			C7			T10			CLAV			LSHO			LUUPA			LMUPA			LDUPA			LLEP			LMEP			LRAD			LUL			LRFIN			RSHO			RUPA1			RMUPA			RDUPA			RLEP			RMEP			RRAD			RUL			RUFIN			LASI			RASI			USACR			LSACR			RSACR			LTHI1			LTHI2			LTHI3			LTHI4			LLFC			LMFC			LTIB1			LTIB2			LTIB3			LTIB4			LLMAL			LMMAL			LMT1			LMT2			LMT5			RTHI			RTHI2			RTHI3			RTHI4			RLFC			RMFC			RTIB1			RTIB2			RTIB3			RTIB4			RLMAL			RMMAL			RHEE			RMT1			RMT2			RMT5			*60			
		X1	Y1	Z1	X2	Y2	Z2	X3	Y3	Z3	X4	Y4	Z4	X5	Y5	Z5	X6	Y6	Z6	X7	Y7	Z7	X8	Y8	Z8	X9	Y9	Z9	X10	Y10	Z10	X11	Y11	Z11	X12	Y12	Z12	X13	Y13	Z13	X14	Y14	Z14	X15	Y15	Z15	X16	Y16	Z16	X17	Y17	Z17	X18	Y18	Z18	X19	Y19	Z19	X20	Y20	Z20	X21	Y21	Z21	X22	Y22	Z22	X23	Y23	Z23	X24	Y24	Z24	X25	Y25	Z25	X26	Y26	Z26	X27	Y27	Z27	X28	Y28	Z28	X29	Y29	Z29	X30	Y30	Z30	X31	Y31	Z31	X32	Y32	Z32	X33	Y33	Z33	X34	Y34	Z34	X35	Y35	Z35	X36	Y36	Z36	X37	Y37	Z37	X38	Y38	Z38	X39	Y39	Z39	X40	Y40	Z40	X41	Y41	Z41	X42	Y42	Z42	X43	Y43	Z43	X44	Y44	Z44	X45	Y45	Z45	X46	Y46	Z46	X47	Y47	Z47	X48	Y48	Z48	X49	Y49	Z49	X50	Y50	Z50	X51	Y51	Z51	X52	Y52	Z52	X53	Y53	Z53	X54	Y54	Z54	X55	Y55	Z55	X56	Y56	Z56	X57	Y57	Z57	X58	Y58	Z58	X59	Y59	Z59	X60	Y60	Z60	X61	Y61	Z61	

785	3.92	239.7539062500001	1021.829284667969	-887.4105224609377	90.46123504638673	1092.930053710938	-966.3931884765627	74.64579010009767	1106.5322265625	-818.8798828125002	-55.19831848144533	1002.884948730469	-895.8723754882815	-314.8974304199219	832.194030761719	-890.9843750000002	10.52399063110352	849.462829589844	-895.5449829101565	-19.61615753173828	920.8260498046877	-1067.0751953125	-168.7541656494141	957.374206542969	-1177.029418945313	-169.6900177001953	914.4135742187502	-1204.726684570313	-220.3472595214844	941.588073730469	-1223.385375976563	-270.9357604980469	901.4859619140627	-1264.765869140625	-325.7653198242188	923.2634887695315	-1185.609985351563	-336.6402893066407	718.4681396484376	-1094.844116210938	-328.7587585449219	669.4533081054689	-1154.601196289063	-288.9492797851563	678.5119628906251	-1058.932983398438	-17.31220436096192	939.1721191406252	-734.9356079101564	-178.1359100341797	979.4479980468752	-622.3882446289064	-182.9548645019532	938.3839111328127	-595.2952270507814	-233.1036224365235	967.6353149414065	-579.5578002929689	-285.5587463378907	926.7117919921877	-541.0740966796876	-342.9320983886719	940.3367919921877	-614.5578002929689	-284.0591430664063	724.8692626953126	-691.1834106445314	-295.8149414062501	683.4673461914064	-627.1210937500001	-266.7489929199219	663.1957397460939	-727.4774169921876	-380.2488708496094	577.4187622070314	-1000.342712402344	-365.7489624023438	577.6672973632814	-775.7059326171877	-449.022430419922	758.2011108398439	-890.3034667968752	-478.5396118164064	744.3831176757814	-917.8178710937502	-477.2543029785157	742.2997436523439	-860.5062255859377	-449.1117248535157	584.2745971679689	-1109.872680664063	-369.1425170898438	579.8290405273439	-1133.399536132813	-340.8387756347657	609.9790039062501	-1107.401733398438	-342.5268859863282	534.1300659179689	-1161.906005859375	-210.7146759033204	436.6396484375001	-1200.0771484375	-148.1956939697266	424.8213500976564	-1086.620483398438	-208.3667907714844	267.6297302246094	-1107.341186523438	-252.6001434326172	229.9540100097657	-1173.086059570313	-228.6617431640626	223.0798034667969	-1134.397583007813	-274.5354309082032	162.9743041992188	-1095.482177734375	-367.6974792480469	93.45664215087892	-1129.728515625	-330.2659301757813	105.5113525390625	-1046.459594726563	-214.4427490234376	65.10228729248048	-1098.195556640625	-226.4418945312501	61.23924636840822	-1139.8837890625	-275.7504577636719	43.6039047241211	-1177.536254882813	-420.440399169922	551.6812744140626	-647.9921264648439	-356.5289001464844	553.6551513671876	-630.0795898437501	-336.8978881835938	579.0393676757814	-638.3286743164064	-307.7651062011719	489.5837707519532	-608.1348266601564	-182.5744171142578	419.9607849121095	-598.7481079101564	-129.0784759521485	424.947235107422	-722.1324462890626	-167.3917388916016	297.0263977050782	-629.7068481445314	-268.7665100097657	251.895248413086	-615.6771240234376	-227.7766418457032	234.6425018310547	-627.1654052734376	-236.6177673339844	194.3483581542969	-670.5077514648439	-365.1066284179688	90.56252288818361	-677.6819458007814	-318.5138854980469	104.4227447509766	-758.9342041015626	-417.7945251464845	53.44210815429689	-744.2047119140626	-207.3100891113282	54.19485092163087	-709.6210937500001	-217.3903503417969	57.24281692504884	-665.1900634765626	-275.2084960937501	30.92434120178223	-618.7493286132814	nan	nan	nan	
786	3.925	239.5259399414063	1021.825073242188	-887.1851196289065	90.40011596679689	1093.024169921875	-966.3531494140627	74.50491333007814	1106.712524414063	-819.108825683594	-55.22322845458986	1002.916381835938	-895.8284301757815	-314.7515869140626	831.9781494140627	-890.7888183593752	10.49618530273438	849.4363403320315	-895.4141845703127	-19.6599292755127	920.9348144531252	-1067.068725585938	-168.7084503173828	957.4055786132815	-1177.03173828125	-169.8348541259766	914.4558105468752	-1204.668090820313	-220.4115447998047	941.624694824219	-1223.373291015625	-270.9267578125001	901.399353027344	-1264.76953125	-325.7769775390626	923.206481933594	-1185.5859375	-336.5284118652344	718.3954467773439	-1094.83837890625	-328.6500854492188	669.4862670898439	-1154.570556640625	-288.8920593261719	678.5028686523439	-1058.918579101563	-17.40489387512207	939.255798339844	-734.9191284179689	-178.1727905273438	979.5313110351565	-622.4473876953126	-183.1587829589844	938.6695556640627	-595.8939819335939	-233.1568450927735	967.6748046875002	-579.6049194335939	-285.5928344726563	926.7925415039065	-541.1094360351564	-342.9725036621094	940.324401855469	-614.5922241210939	-284.0913696289063	724.8516235351564	-691.1716918945314	-295.7156372070313	683.5059814453126	-627.1116943359376	-266.6897277832032	663.1480102539064	-727.4717407226564	-380.1207580566407	577.5172119140626	-1000.340454101563	-365.6966552734376	577.7025756835939	-775.722595214844	-449.0554504394532	758.2048339843751	-890.284362792969	-478.5109863281251	744.3954467773439	-917.8027954101565	-477.2528686523439	742.3027954101564	-860.5058593750002	-449.0864562988282	584.2658081054689	-1109.841796875	-369.0863037109376	579.8375244140626	-1133.335327148438	-340.7337646484376	610.0301513671876	-1107.35009765625	-342.3988952636719	534.0739135742189	-1161.826782226563	-210.6416778564454	436.5194702148439	-1200.015502929688	-148.3083190917969	424.7166748046876	-1086.318237304688	-208.4037628173829	267.5769958496094	-1107.209106445313	-252.5906219482422	229.9263610839844	-1173.012939453125	-228.606430053711	223.0779876708985	-1134.38232421875	-274.4386901855469	163.0850677490235	-1095.465698242188	-367.7298278808594	93.42534637451173	-1129.649047851563	-330.2528076171876	105.5080871582032	-1046.453247070313	-214.4495544433594	65.11025238037111	-1098.165771484375	-226.4358978271485	61.34071350097658	-1139.9716796875	-275.7121887207032	43.61106109619141	-1177.536376953125	-420.4382324218751	551.6772460937501	-647.9104003906251	-356.4747619628907	553.6661376953126	-630.0108642578126	-336.8225708007813	579.0259399414064	-638.3418579101564	-307.6560058593751	489.5588684082032	-608.1713867187501	-182.5616607666016	419.9576721191407	-598.7474365234376	-128.9700317382813	424.9536132812501	-722.2597045898439	-167.3368682861328	297.0327758789063	-629.7116088867189	-268.7628173828126	251.9167633056641	-615.6688842773439	-227.7723693847657	234.6171264648438	-627.1553344726564	-236.6047668457032	194.3409271240235	-670.5611572265626	-365.1301269531251	90.55747222900392	-677.7124633789064	-318.5837402343751	104.4215927124024	-758.9532470703126	-417.828826904297	53.41490936279298	-744.2038574218751	-207.3355712890626	54.14728164672853	-709.3456420898439	-217.3576660156251	57.24685668945314	-665.1828002929689	-275.1954345703126	30.9480381011963	-618.7607421875001	nan	nan	nan	
787	3.93	239.6687316894532	1021.963989257813	-887.228698730469	90.32408142089845	1093.119018554688	-966.2871704101565	74.45478820800783	1106.764892578125	-819.0703125000002	-55.26265716552736	1002.978332519531	-895.8337402343752	-314.7301025390626	832.019958496094	-890.8033447265627	10.47168827056885	849.447937011719	-895.3232421875002	-19.57644653320313	921.0419921875002	-1067.09765625	-168.8283233642578	957.436950683594	-1177.02587890625	-169.7858581542969	914.4553222656252	-1204.693969726563	-220.4501037597657	941.6019287109377	-1223.3720703125	-270.9443969726563	901.4172973632815	-1264.784912109375	-325.7621459960938	923.151794433594	-1185.63671875	-336.4445800781251	718.3726196289064	-1094.8359375	-328.4586791992188	669.4208984375001	-1154.597290039063	-288.7551269531251	678.5291748046876	-1058.890258789063	-17.46470069885254	939.3409423828127	-734.9354248046876	-178.3021087646485	979.5198974609377	-622.4976196289064	-183.1827850341797	938.7423095703127	-595.7952270507814	-233.2327117919922	967.6770629882815	-579.6663208007814	-285.6345214843751	926.8110961914065	-541.1817626953126	-343.0136108398438	940.3381347656252	-614.6420898437501	-284.0336303710938	724.8693847656251	-691.1862792968751	-295.6945800781251	683.5433349609376	-627.1406250000001	-266.6525878906251	663.1835937500001	-727.4838256835939	-380.1031188964844	577.6320190429689	-1000.473999023438	-365.5814514160157	577.6779174804689	-775.886169433594	-449.051239013672	758.2174072265626	-890.285095214844	-478.5293273925782	744.3988037109376	-917.8051757812502	-477.2497558593751	742.2790527343751	-860.502136230469	-449.0003662109376	584.2799072265626	-1109.870483398438	-368.9875183105469	579.8698730468751	-1133.304443359375	-340.6678161621094	610.0559692382814	-1107.27587890625	-342.2355041503907	534.0391235351564	-1161.81103515625	-210.5677947998047	436.4900207519532	-1199.93505859375	-148.0724182128907	424.7767639160157	-1086.102783203125	-208.3292388916016	267.5540466308594	-1107.2041015625	-252.4973449707032	229.9102935791016	-1173.00048828125	-228.6046905517579	223.0680694580079	-1134.376708984375	-274.4184875488282	163.085678100586	-1095.42333984375	-367.7139282226563	93.45970153808595	-1129.59912109375	-330.2143859863282	105.534652709961	-1046.492919921875	-214.4277801513672	65.09915161132814	-1098.189331054688	-226.5259399414063	61.31982803344728	-1139.942138671875	-275.7640075683594	43.60471725463868	-1177.528686523438	-420.3951416015626	551.6812133789064	-647.9199218750001	-356.3708190917969	553.5701293945314	-630.0980834960939	-336.7644958496094	579.0484619140626	-638.4020385742189	-307.5853271484376	489.4976806640626	-608.1357421875001	-182.5089416503907	419.9778442382814	-598.7485351562501	-128.9314880371094	424.9230957031251	-722.3208618164064	-167.2383270263672	297.0918884277344	-630.1163940429689	-268.7062988281251	251.9102020263672	-615.6202392578126	-227.7834777832032	234.5985717773438	-627.0304565429689	-236.594955444336	194.3437042236329	-670.5808715820314	-365.0962829589844	90.59661865234376	-677.6445312500001	-318.4942626953126	104.432975769043	-758.9993286132814	-417.8350830078126	53.44370651245119	-744.2096557617189	-207.2401275634766	54.24957275390626	-709.6972045898439	-217.3504333496094	57.23098373413087	-665.1685791015626	-275.2418823242188	30.91559600830079	-618.7579956054689	nan	nan	nan	
788	3.935	239.3900756835938	1022.123779296875	-886.9119262695315	90.35119628906251	1093.217651367188	-966.2551879882815	74.38832092285158	1106.81787109375	-819.183288574219	-55.2750587463379	1002.995239257813	-895.8365478515627	-314.7307434082032	832.0305786132815	-890.793151855469	10.47060871124268	849.444763183594	-895.2360839843752	-19.54190444946289	921.0382080078127	-1067.101318359375	-168.8235321044922	957.4212036132815	-1176.976928710938	-169.7952117919922	914.4773559570315	-1204.689697265625	-220.4197998046876	941.6243896484377	-1223.37548828125	-270.8403015136719	901.411804199219	-1264.836303710938	-325.7769165039063	923.1151123046877	-1185.692504882813	-336.3268737792969	718.3348388671876	-1094.895263671875	-328.3651123046876	669.3301391601564	-1154.601928710938	-288.6718139648438	678.5169677734376	-1058.883178710938	-17.52158355712891	939.3801879882815	-734.8810424804689	-178.4134521484375	979.6226196289065	-622.5587158203126	-183.1710357666016	938.5946044921877	-595.3804931640626	-233.2769165039063	967.6970214843752	-579.7231445312501	-285.6737060546876	926.8423461914065	-541.1341552734376	-343.1026000976563	940.320983886719	-614.6088256835939	-283.8394775390626	724.9418334960939	-691.2994995117189	-295.6874084472657	683.4962768554689	-627.1270141601564	-266.5915527343751	663.1605224609376	-727.3500976562501	-380.3790588378907	577.4147949218751	-1000.383239746094	-365.7728271484376	577.5673217773439	-775.8248291015627	-448.9516601562501	758.1866455078126	-890.3094482421877	-478.4844055175782	744.3839721679689	-917.777526855469	-477.2111206054689	742.2955932617189	-860.4797973632815	-448.8991088867189	584.2457885742189	-1109.86669921875	-368.9250183105469	579.8247680664064	-1133.282104492188	-340.5832214355469	610.0247802734376	-1107.231079101563	-342.2080993652344	534.0705566406251	-1161.717895507813	-210.5203399658204	436.5220336914064	-1199.8173828125	-147.868637084961	424.818817138672	-1085.936279296875	-208.2756347656251	267.5074462890626	-1107.124877929688	-252.4581756591797	229.9676055908204	-1172.847900390625	-228.5249786376954	223.0329284667969	-1134.307006835938	-274.4276733398438	163.0851135253907	-1095.362548828125	-367.6915283203126	93.3971633911133	-1129.551025390625	-330.2502136230469	105.4939193725586	-1046.480102539063	-215.0074920654297	64.34635162353517	-1097.967163085938	-226.4591369628907	61.29409790039064	-1139.922729492188	-275.7828979492188	43.67929458618165	-1177.4912109375	-420.3166503906251	551.6629638671876	-648.0336303710939	-356.3736267089844	553.5339355468751	-630.0732421875001	-336.7586669921876	579.0494384765626	-638.3984985351564	-307.4730529785157	489.4685058593751	-608.1851196289064	-182.4973907470703	419.9744567871095	-598.7662353515626	-128.8656616210938	424.917205810547	-722.3210449218751	-167.2059020996094	297.0923767089844	-630.0986328125001	-268.7176513671876	251.8794403076172	-615.6312866210939	-227.8133392333985	234.5457763671876	-626.8629150390626	-236.5980987548829	194.3484039306641	-670.5801391601564	-365.0560607910157	90.56155395507814	-677.7249145507814	-318.5889282226563	104.4262008666992	-758.9617919921876	-417.8749084472657	53.48268127441408	-744.2161254882814	-207.302230834961	54.17628479003908	-709.7112426757814	-217.3695831298829	57.18486404418947	-665.1381225585939	-275.2250671386719	30.94696807861329	-618.7799072265626	nan	nan	nan	
